# xmcd
#
# Track frame offsets: 
#        150
#        11506
#        29474
#        44562
#        65195
#        74906
#        89125
#        102051
#        116808
#        126537
#        143844
#        158690
#
# Disc length: 2474 seconds
#
# Revision: 0
# Processed by: cddbd v1.5.2PL0 Copyright (c) Steve Scherf et al.
# Submitted via: ExactAudioCopy v0.95b4
#
DISCID=bb09a80c
DTITLE=Eric Clapton - Blues World Of Eric Clapton
DYEAR=1975
DGENRE=Blues
TTITLE0=Steppin' Out
TTITLE1=Calcutta Blues
TTITLE2=Lonely Years
TTITLE3=Stormy Monday
TTITLE4=Shim Sham Shimmy
TTITLE5=Rambling on My Mind
TTITLE6=Pretty Girls Everywhere
TTITLE7=Hideaway
TTITLE8=Key to Love
TTITLE9=Bernard Jenkins
TTITLE10=Third Degree
TTITLE11=Have You Heard
EXTD=
EXTT0=
EXTT1=
EXTT2=
EXTT3=
EXTT4=
EXTT5=
EXTT6=
EXTT7=
EXTT8=
EXTT9=
EXTT10=
EXTT11=
PLAYORDER=
